<mxfile host="app.diagrams.net" modified="2024-02-04T14:19:41.358Z" agent="Mozilla/5.0 (Macintosh; Intel Mac OS X 10_15_7) AppleWebKit/605.1.15 (KHTML, like Gecko) Version/17.1.2 Safari/605.1.15" etag="dcMptU3h_Rbeh8au96VL" version="23.1.1" type="github">
  <diagram name="第 1 页" id="x14RmT6bt3E7FFSnZCNi">
    <mxGraphModel dx="1134" dy="1018" grid="1" gridSize="10" guides="1" tooltips="1" connect="1" arrows="1" fold="1" page="1" pageScale="1" pageWidth="827" pageHeight="1169" math="0" shadow="0">
      <root>
        <mxCell id="0" />
        <mxCell id="1" parent="0" />
        <mxCell id="L9FCk5Rw57k0fqnOI3Nh-120" value="" style="rounded=0;whiteSpace=wrap;html=1;strokeWidth=0;" vertex="1" parent="1">
          <mxGeometry y="100" width="910" height="620" as="geometry" />
        </mxCell>
        <mxCell id="L9FCk5Rw57k0fqnOI3Nh-121" style="edgeStyle=orthogonalEdgeStyle;rounded=0;orthogonalLoop=1;jettySize=auto;html=1;exitX=0.5;exitY=1;exitDx=0;exitDy=0;entryX=0.5;entryY=0;entryDx=0;entryDy=0;" edge="1" parent="1" source="L9FCk5Rw57k0fqnOI3Nh-122" target="L9FCk5Rw57k0fqnOI3Nh-124">
          <mxGeometry relative="1" as="geometry" />
        </mxCell>
        <mxCell id="L9FCk5Rw57k0fqnOI3Nh-122" value="链表头&lt;br&gt;slab_caches" style="rounded=1;whiteSpace=wrap;html=1;absoluteArcSize=1;fillColor=#e1d5e7;strokeColor=#9673a6;" vertex="1" parent="1">
          <mxGeometry x="60" y="205" width="120" height="40" as="geometry" />
        </mxCell>
        <mxCell id="L9FCk5Rw57k0fqnOI3Nh-123" style="edgeStyle=orthogonalEdgeStyle;rounded=0;orthogonalLoop=1;jettySize=auto;html=1;exitX=0.5;exitY=1;exitDx=0;exitDy=0;entryX=0.5;entryY=0;entryDx=0;entryDy=0;" edge="1" parent="1" source="L9FCk5Rw57k0fqnOI3Nh-124" target="L9FCk5Rw57k0fqnOI3Nh-126">
          <mxGeometry relative="1" as="geometry" />
        </mxCell>
        <mxCell id="L9FCk5Rw57k0fqnOI3Nh-124" value="kmem_cache" style="rounded=0;whiteSpace=wrap;html=1;fillColor=#fff2cc;strokeColor=#d6b656;" vertex="1" parent="1">
          <mxGeometry x="70" y="275" width="100" height="30" as="geometry" />
        </mxCell>
        <mxCell id="L9FCk5Rw57k0fqnOI3Nh-125" style="edgeStyle=orthogonalEdgeStyle;rounded=0;orthogonalLoop=1;jettySize=auto;html=1;exitX=0.5;exitY=1;exitDx=0;exitDy=0;entryX=0.5;entryY=0;entryDx=0;entryDy=0;" edge="1" parent="1" source="L9FCk5Rw57k0fqnOI3Nh-126" target="L9FCk5Rw57k0fqnOI3Nh-128">
          <mxGeometry relative="1" as="geometry" />
        </mxCell>
        <mxCell id="L9FCk5Rw57k0fqnOI3Nh-126" value="kmem_cache" style="rounded=0;whiteSpace=wrap;html=1;fillColor=#fff2cc;strokeColor=#d6b656;" vertex="1" parent="1">
          <mxGeometry x="70" y="335" width="100" height="30" as="geometry" />
        </mxCell>
        <mxCell id="L9FCk5Rw57k0fqnOI3Nh-127" style="edgeStyle=orthogonalEdgeStyle;rounded=0;orthogonalLoop=1;jettySize=auto;html=1;exitX=0.5;exitY=1;exitDx=0;exitDy=0;entryX=0.5;entryY=0;entryDx=0;entryDy=0;" edge="1" parent="1" source="L9FCk5Rw57k0fqnOI3Nh-128" target="L9FCk5Rw57k0fqnOI3Nh-130">
          <mxGeometry relative="1" as="geometry" />
        </mxCell>
        <mxCell id="L9FCk5Rw57k0fqnOI3Nh-128" value="kmem_cache" style="rounded=0;whiteSpace=wrap;html=1;fillColor=#fff2cc;strokeColor=#d6b656;" vertex="1" parent="1">
          <mxGeometry x="70" y="395" width="100" height="30" as="geometry" />
        </mxCell>
        <mxCell id="L9FCk5Rw57k0fqnOI3Nh-129" style="edgeStyle=orthogonalEdgeStyle;rounded=0;orthogonalLoop=1;jettySize=auto;html=1;exitX=0.5;exitY=1;exitDx=0;exitDy=0;entryX=0.5;entryY=0;entryDx=0;entryDy=0;" edge="1" parent="1" source="L9FCk5Rw57k0fqnOI3Nh-130" target="L9FCk5Rw57k0fqnOI3Nh-131">
          <mxGeometry relative="1" as="geometry" />
        </mxCell>
        <mxCell id="L9FCk5Rw57k0fqnOI3Nh-130" value="kmem_cache" style="rounded=0;whiteSpace=wrap;html=1;fillColor=#fff2cc;strokeColor=#d6b656;" vertex="1" parent="1">
          <mxGeometry x="70" y="455" width="100" height="30" as="geometry" />
        </mxCell>
        <mxCell id="L9FCk5Rw57k0fqnOI3Nh-131" value="..." style="text;html=1;strokeColor=none;fillColor=none;align=center;verticalAlign=middle;whiteSpace=wrap;rounded=0;" vertex="1" parent="1">
          <mxGeometry x="70" y="515" width="100" height="30" as="geometry" />
        </mxCell>
        <mxCell id="L9FCk5Rw57k0fqnOI3Nh-132" value="" style="html=1;shadow=0;dashed=0;align=center;verticalAlign=middle;shape=mxgraph.arrows2.arrow;dy=0.67;dx=13;notch=0;" vertex="1" parent="1">
          <mxGeometry x="180" y="335" width="40" height="30" as="geometry" />
        </mxCell>
        <mxCell id="L9FCk5Rw57k0fqnOI3Nh-133" value="kmem_cache" style="rounded=1;whiteSpace=wrap;html=1;verticalAlign=top;absoluteArcSize=1;fillColor=#ffcc99;strokeColor=#36393d;" vertex="1" parent="1">
          <mxGeometry x="230" y="265" width="130" height="150" as="geometry" />
        </mxCell>
        <mxCell id="L9FCk5Rw57k0fqnOI3Nh-134" value="kmem_cache_cpu" style="rounded=0;whiteSpace=wrap;html=1;" vertex="1" parent="1">
          <mxGeometry x="240" y="300" width="110" height="25" as="geometry" />
        </mxCell>
        <mxCell id="L9FCk5Rw57k0fqnOI3Nh-135" value="kmem_cache_node" style="rounded=0;whiteSpace=wrap;html=1;" vertex="1" parent="1">
          <mxGeometry x="240" y="375" width="110" height="25" as="geometry" />
        </mxCell>
        <mxCell id="L9FCk5Rw57k0fqnOI3Nh-136" value="name" style="rounded=0;whiteSpace=wrap;html=1;" vertex="1" parent="1">
          <mxGeometry x="240" y="325" width="110" height="25" as="geometry" />
        </mxCell>
        <mxCell id="L9FCk5Rw57k0fqnOI3Nh-137" value="..." style="rounded=0;whiteSpace=wrap;html=1;" vertex="1" parent="1">
          <mxGeometry x="240" y="350" width="110" height="25" as="geometry" />
        </mxCell>
        <mxCell id="L9FCk5Rw57k0fqnOI3Nh-138" value="N" style="rounded=1;whiteSpace=wrap;html=1;verticalAlign=bottom;absoluteArcSize=1;align=left;fillColor=#dae8fc;strokeColor=#6c8ebf;" vertex="1" parent="1">
          <mxGeometry x="440" y="120" width="130" height="150" as="geometry" />
        </mxCell>
        <mxCell id="L9FCk5Rw57k0fqnOI3Nh-139" value="..." style="rounded=1;whiteSpace=wrap;html=1;verticalAlign=bottom;absoluteArcSize=1;align=left;fillColor=#dae8fc;strokeColor=#6c8ebf;" vertex="1" parent="1">
          <mxGeometry x="450" y="130" width="130" height="150" as="geometry" />
        </mxCell>
        <mxCell id="L9FCk5Rw57k0fqnOI3Nh-140" value="1" style="rounded=1;whiteSpace=wrap;html=1;verticalAlign=bottom;absoluteArcSize=1;align=left;fillColor=#dae8fc;strokeColor=#6c8ebf;" vertex="1" parent="1">
          <mxGeometry x="460" y="140" width="130" height="150" as="geometry" />
        </mxCell>
        <mxCell id="L9FCk5Rw57k0fqnOI3Nh-141" value="kmem_cache_cpu" style="rounded=1;whiteSpace=wrap;html=1;verticalAlign=top;absoluteArcSize=1;fillColor=#dae8fc;strokeColor=#6c8ebf;" vertex="1" parent="1">
          <mxGeometry x="470" y="150" width="130" height="150" as="geometry" />
        </mxCell>
        <mxCell id="L9FCk5Rw57k0fqnOI3Nh-142" value="void **freelist;" style="rounded=0;whiteSpace=wrap;html=1;" vertex="1" parent="1">
          <mxGeometry x="480" y="185" width="110" height="25" as="geometry" />
        </mxCell>
        <mxCell id="L9FCk5Rw57k0fqnOI3Nh-143" style="rounded=0;orthogonalLoop=1;jettySize=auto;html=1;exitX=1;exitY=0.5;exitDx=0;exitDy=0;entryX=0;entryY=0.5;entryDx=0;entryDy=0;" edge="1" parent="1" source="L9FCk5Rw57k0fqnOI3Nh-144" target="L9FCk5Rw57k0fqnOI3Nh-158">
          <mxGeometry relative="1" as="geometry" />
        </mxCell>
        <mxCell id="L9FCk5Rw57k0fqnOI3Nh-144" value="struct page *partial" style="rounded=0;whiteSpace=wrap;html=1;" vertex="1" parent="1">
          <mxGeometry x="480" y="260" width="110" height="25" as="geometry" />
        </mxCell>
        <mxCell id="L9FCk5Rw57k0fqnOI3Nh-145" style="edgeStyle=orthogonalEdgeStyle;rounded=0;orthogonalLoop=1;jettySize=auto;html=1;exitX=1;exitY=0.5;exitDx=0;exitDy=0;entryX=0;entryY=0.5;entryDx=0;entryDy=0;" edge="1" parent="1" source="L9FCk5Rw57k0fqnOI3Nh-146" target="L9FCk5Rw57k0fqnOI3Nh-150">
          <mxGeometry relative="1" as="geometry" />
        </mxCell>
        <mxCell id="L9FCk5Rw57k0fqnOI3Nh-146" value="struct page *pages;" style="rounded=0;whiteSpace=wrap;html=1;" vertex="1" parent="1">
          <mxGeometry x="480" y="235" width="110" height="25" as="geometry" />
        </mxCell>
        <mxCell id="L9FCk5Rw57k0fqnOI3Nh-147" value="..." style="rounded=0;whiteSpace=wrap;html=1;" vertex="1" parent="1">
          <mxGeometry x="480" y="210" width="110" height="25" as="geometry" />
        </mxCell>
        <mxCell id="L9FCk5Rw57k0fqnOI3Nh-148" style="edgeStyle=orthogonalEdgeStyle;rounded=1;orthogonalLoop=1;jettySize=auto;html=1;exitX=1;exitY=0.5;exitDx=0;exitDy=0;entryX=0;entryY=0.5;entryDx=0;entryDy=0;curved=0;" edge="1" parent="1" target="L9FCk5Rw57k0fqnOI3Nh-141">
          <mxGeometry relative="1" as="geometry">
            <mxPoint x="350" y="288" as="sourcePoint" />
            <mxPoint x="450" y="225" as="targetPoint" />
          </mxGeometry>
        </mxCell>
        <mxCell id="L9FCk5Rw57k0fqnOI3Nh-149" style="edgeStyle=orthogonalEdgeStyle;rounded=0;orthogonalLoop=1;jettySize=auto;html=1;exitX=1;exitY=0.5;exitDx=0;exitDy=0;entryX=0;entryY=0.5;entryDx=0;entryDy=0;endArrow=none;endFill=0;" edge="1" parent="1" source="L9FCk5Rw57k0fqnOI3Nh-150" target="L9FCk5Rw57k0fqnOI3Nh-151">
          <mxGeometry relative="1" as="geometry" />
        </mxCell>
        <mxCell id="L9FCk5Rw57k0fqnOI3Nh-150" value="slab" style="rounded=1;whiteSpace=wrap;html=1;fillColor=#f8cecc;strokeColor=#b85450;" vertex="1" parent="1">
          <mxGeometry x="640" y="232" width="40" height="30" as="geometry" />
        </mxCell>
        <mxCell id="L9FCk5Rw57k0fqnOI3Nh-151" value="" style="rounded=0;whiteSpace=wrap;html=1;fillColor=#b0e3e6;strokeColor=#0e8088;" vertex="1" parent="1">
          <mxGeometry x="700" y="237.5" width="30" height="20" as="geometry" />
        </mxCell>
        <mxCell id="L9FCk5Rw57k0fqnOI3Nh-152" style="edgeStyle=orthogonalEdgeStyle;rounded=0;orthogonalLoop=1;jettySize=auto;html=1;exitX=1;exitY=0.5;exitDx=0;exitDy=0;entryX=0;entryY=0.5;entryDx=0;entryDy=0;endArrow=none;endFill=0;" edge="1" parent="1" source="L9FCk5Rw57k0fqnOI3Nh-151" target="L9FCk5Rw57k0fqnOI3Nh-153">
          <mxGeometry relative="1" as="geometry">
            <mxPoint x="741" y="247.5" as="sourcePoint" />
          </mxGeometry>
        </mxCell>
        <mxCell id="L9FCk5Rw57k0fqnOI3Nh-153" value="" style="rounded=0;whiteSpace=wrap;html=1;fillColor=#b0e3e6;strokeColor=#0e8088;" vertex="1" parent="1">
          <mxGeometry x="750" y="237" width="30" height="20" as="geometry" />
        </mxCell>
        <mxCell id="L9FCk5Rw57k0fqnOI3Nh-154" style="edgeStyle=orthogonalEdgeStyle;rounded=0;orthogonalLoop=1;jettySize=auto;html=1;exitX=1;exitY=0.5;exitDx=0;exitDy=0;entryX=0;entryY=0.5;entryDx=0;entryDy=0;endArrow=none;endFill=0;" edge="1" parent="1" source="L9FCk5Rw57k0fqnOI3Nh-153" target="L9FCk5Rw57k0fqnOI3Nh-155">
          <mxGeometry relative="1" as="geometry">
            <mxPoint x="799" y="247.5" as="sourcePoint" />
          </mxGeometry>
        </mxCell>
        <mxCell id="L9FCk5Rw57k0fqnOI3Nh-155" value="" style="rounded=0;whiteSpace=wrap;html=1;fillColor=#b0e3e6;strokeColor=#0e8088;" vertex="1" parent="1">
          <mxGeometry x="797" y="237" width="30" height="20" as="geometry" />
        </mxCell>
        <mxCell id="L9FCk5Rw57k0fqnOI3Nh-156" style="edgeStyle=orthogonalEdgeStyle;rounded=0;orthogonalLoop=1;jettySize=auto;html=1;exitX=0.5;exitY=1;exitDx=0;exitDy=0;entryX=0.5;entryY=0;entryDx=0;entryDy=0;endArrow=none;endFill=0;" edge="1" parent="1" source="L9FCk5Rw57k0fqnOI3Nh-158" target="L9FCk5Rw57k0fqnOI3Nh-162">
          <mxGeometry relative="1" as="geometry" />
        </mxCell>
        <mxCell id="L9FCk5Rw57k0fqnOI3Nh-157" style="edgeStyle=orthogonalEdgeStyle;rounded=0;orthogonalLoop=1;jettySize=auto;html=1;exitX=1;exitY=0.5;exitDx=0;exitDy=0;entryX=0;entryY=0.5;entryDx=0;entryDy=0;" edge="1" parent="1" source="L9FCk5Rw57k0fqnOI3Nh-158" target="L9FCk5Rw57k0fqnOI3Nh-167">
          <mxGeometry relative="1" as="geometry" />
        </mxCell>
        <mxCell id="L9FCk5Rw57k0fqnOI3Nh-158" value="slab" style="rounded=1;whiteSpace=wrap;html=1;fillColor=#f8cecc;strokeColor=#b85450;" vertex="1" parent="1">
          <mxGeometry x="640" y="280" width="40" height="30" as="geometry" />
        </mxCell>
        <mxCell id="L9FCk5Rw57k0fqnOI3Nh-159" style="edgeStyle=orthogonalEdgeStyle;rounded=0;orthogonalLoop=1;jettySize=auto;html=1;exitX=1;exitY=0.5;exitDx=0;exitDy=0;entryX=0;entryY=0.5;entryDx=0;entryDy=0;endArrow=none;endFill=0;" edge="1" parent="1" target="L9FCk5Rw57k0fqnOI3Nh-160">
          <mxGeometry relative="1" as="geometry">
            <mxPoint x="827" y="247" as="sourcePoint" />
          </mxGeometry>
        </mxCell>
        <mxCell id="L9FCk5Rw57k0fqnOI3Nh-160" value="..." style="rounded=0;whiteSpace=wrap;html=1;fillColor=#b0e3e6;strokeColor=#0e8088;" vertex="1" parent="1">
          <mxGeometry x="844" y="237" width="30" height="20" as="geometry" />
        </mxCell>
        <mxCell id="L9FCk5Rw57k0fqnOI3Nh-161" style="edgeStyle=orthogonalEdgeStyle;rounded=0;orthogonalLoop=1;jettySize=auto;html=1;exitX=0.5;exitY=1;exitDx=0;exitDy=0;entryX=0.5;entryY=0;entryDx=0;entryDy=0;endArrow=none;endFill=0;fontSize=12;fillColor=#b0e3e6;strokeColor=#0e8088;" edge="1" parent="1" source="L9FCk5Rw57k0fqnOI3Nh-162" target="L9FCk5Rw57k0fqnOI3Nh-164">
          <mxGeometry relative="1" as="geometry" />
        </mxCell>
        <mxCell id="L9FCk5Rw57k0fqnOI3Nh-162" value="" style="rounded=0;whiteSpace=wrap;html=1;fillColor=#b0e3e6;strokeColor=#0e8088;" vertex="1" parent="1">
          <mxGeometry x="645" y="327.5" width="30" height="20" as="geometry" />
        </mxCell>
        <mxCell id="L9FCk5Rw57k0fqnOI3Nh-163" style="edgeStyle=orthogonalEdgeStyle;rounded=0;orthogonalLoop=1;jettySize=auto;html=1;exitX=0.5;exitY=1;exitDx=0;exitDy=0;entryX=0.5;entryY=0;entryDx=0;entryDy=0;endArrow=none;endFill=0;fontSize=12;fillColor=#b0e3e6;strokeColor=#0e8088;" edge="1" parent="1" source="L9FCk5Rw57k0fqnOI3Nh-164" target="L9FCk5Rw57k0fqnOI3Nh-165">
          <mxGeometry relative="1" as="geometry" />
        </mxCell>
        <mxCell id="L9FCk5Rw57k0fqnOI3Nh-164" value="" style="rounded=0;whiteSpace=wrap;html=1;fillColor=#b0e3e6;strokeColor=#0e8088;" vertex="1" parent="1">
          <mxGeometry x="645" y="364" width="30" height="20" as="geometry" />
        </mxCell>
        <mxCell id="L9FCk5Rw57k0fqnOI3Nh-165" value="" style="rounded=0;whiteSpace=wrap;html=1;fillColor=#b0e3e6;strokeColor=#0e8088;" vertex="1" parent="1">
          <mxGeometry x="645" y="400" width="30" height="20" as="geometry" />
        </mxCell>
        <mxCell id="L9FCk5Rw57k0fqnOI3Nh-166" style="edgeStyle=orthogonalEdgeStyle;rounded=0;orthogonalLoop=1;jettySize=auto;html=1;exitX=1;exitY=0.5;exitDx=0;exitDy=0;entryX=0;entryY=0.5;entryDx=0;entryDy=0;" edge="1" parent="1" source="L9FCk5Rw57k0fqnOI3Nh-167" target="L9FCk5Rw57k0fqnOI3Nh-169">
          <mxGeometry relative="1" as="geometry" />
        </mxCell>
        <mxCell id="L9FCk5Rw57k0fqnOI3Nh-167" value="slab" style="rounded=1;whiteSpace=wrap;html=1;fillColor=#f8cecc;strokeColor=#b85450;" vertex="1" parent="1">
          <mxGeometry x="710" y="280" width="40" height="30" as="geometry" />
        </mxCell>
        <mxCell id="L9FCk5Rw57k0fqnOI3Nh-168" style="edgeStyle=orthogonalEdgeStyle;rounded=0;orthogonalLoop=1;jettySize=auto;html=1;exitX=1;exitY=0.5;exitDx=0;exitDy=0;entryX=0;entryY=0.5;entryDx=0;entryDy=0;" edge="1" parent="1" source="L9FCk5Rw57k0fqnOI3Nh-169" target="L9FCk5Rw57k0fqnOI3Nh-182">
          <mxGeometry relative="1" as="geometry" />
        </mxCell>
        <mxCell id="L9FCk5Rw57k0fqnOI3Nh-169" value="slab" style="rounded=1;whiteSpace=wrap;html=1;fillColor=#f8cecc;strokeColor=#b85450;" vertex="1" parent="1">
          <mxGeometry x="780" y="280" width="40" height="30" as="geometry" />
        </mxCell>
        <mxCell id="L9FCk5Rw57k0fqnOI3Nh-170" style="edgeStyle=orthogonalEdgeStyle;rounded=0;orthogonalLoop=1;jettySize=auto;html=1;exitX=0.5;exitY=1;exitDx=0;exitDy=0;entryX=0.5;entryY=0;entryDx=0;entryDy=0;endArrow=none;endFill=0;" edge="1" parent="1" target="L9FCk5Rw57k0fqnOI3Nh-172">
          <mxGeometry relative="1" as="geometry">
            <mxPoint x="730" y="310" as="sourcePoint" />
          </mxGeometry>
        </mxCell>
        <mxCell id="L9FCk5Rw57k0fqnOI3Nh-171" style="edgeStyle=orthogonalEdgeStyle;rounded=0;orthogonalLoop=1;jettySize=auto;html=1;exitX=0.5;exitY=1;exitDx=0;exitDy=0;entryX=0.5;entryY=0;entryDx=0;entryDy=0;endArrow=none;endFill=0;fontSize=12;fillColor=#b0e3e6;strokeColor=#0e8088;" edge="1" parent="1" source="L9FCk5Rw57k0fqnOI3Nh-172" target="L9FCk5Rw57k0fqnOI3Nh-174">
          <mxGeometry relative="1" as="geometry" />
        </mxCell>
        <mxCell id="L9FCk5Rw57k0fqnOI3Nh-172" value="" style="rounded=0;whiteSpace=wrap;html=1;fillColor=#b0e3e6;strokeColor=#0e8088;" vertex="1" parent="1">
          <mxGeometry x="715" y="327.5" width="30" height="20" as="geometry" />
        </mxCell>
        <mxCell id="L9FCk5Rw57k0fqnOI3Nh-173" style="edgeStyle=orthogonalEdgeStyle;rounded=0;orthogonalLoop=1;jettySize=auto;html=1;exitX=0.5;exitY=1;exitDx=0;exitDy=0;entryX=0.5;entryY=0;entryDx=0;entryDy=0;endArrow=none;endFill=0;fontSize=12;fillColor=#b0e3e6;strokeColor=#0e8088;" edge="1" parent="1" source="L9FCk5Rw57k0fqnOI3Nh-174" target="L9FCk5Rw57k0fqnOI3Nh-175">
          <mxGeometry relative="1" as="geometry" />
        </mxCell>
        <mxCell id="L9FCk5Rw57k0fqnOI3Nh-174" value="" style="rounded=0;whiteSpace=wrap;html=1;fillColor=#b0e3e6;strokeColor=#0e8088;" vertex="1" parent="1">
          <mxGeometry x="715" y="364" width="30" height="20" as="geometry" />
        </mxCell>
        <mxCell id="L9FCk5Rw57k0fqnOI3Nh-175" value="" style="rounded=0;whiteSpace=wrap;html=1;fillColor=#b0e3e6;strokeColor=#0e8088;" vertex="1" parent="1">
          <mxGeometry x="715" y="400" width="30" height="20" as="geometry" />
        </mxCell>
        <mxCell id="L9FCk5Rw57k0fqnOI3Nh-176" style="edgeStyle=orthogonalEdgeStyle;rounded=0;orthogonalLoop=1;jettySize=auto;html=1;exitX=0.5;exitY=1;exitDx=0;exitDy=0;entryX=0.5;entryY=0;entryDx=0;entryDy=0;endArrow=none;endFill=0;" edge="1" parent="1" target="L9FCk5Rw57k0fqnOI3Nh-178">
          <mxGeometry relative="1" as="geometry">
            <mxPoint x="800" y="310" as="sourcePoint" />
          </mxGeometry>
        </mxCell>
        <mxCell id="L9FCk5Rw57k0fqnOI3Nh-177" style="edgeStyle=orthogonalEdgeStyle;rounded=0;orthogonalLoop=1;jettySize=auto;html=1;exitX=0.5;exitY=1;exitDx=0;exitDy=0;entryX=0.5;entryY=0;entryDx=0;entryDy=0;endArrow=none;endFill=0;fontSize=12;fillColor=#b0e3e6;strokeColor=#0e8088;" edge="1" parent="1" source="L9FCk5Rw57k0fqnOI3Nh-178" target="L9FCk5Rw57k0fqnOI3Nh-180">
          <mxGeometry relative="1" as="geometry" />
        </mxCell>
        <mxCell id="L9FCk5Rw57k0fqnOI3Nh-178" value="" style="rounded=0;whiteSpace=wrap;html=1;fillColor=#b0e3e6;strokeColor=#0e8088;" vertex="1" parent="1">
          <mxGeometry x="785" y="327.5" width="30" height="20" as="geometry" />
        </mxCell>
        <mxCell id="L9FCk5Rw57k0fqnOI3Nh-179" style="edgeStyle=orthogonalEdgeStyle;rounded=0;orthogonalLoop=1;jettySize=auto;html=1;exitX=0.5;exitY=1;exitDx=0;exitDy=0;entryX=0.5;entryY=0;entryDx=0;entryDy=0;endArrow=none;endFill=0;fontSize=12;fillColor=#b0e3e6;strokeColor=#0e8088;" edge="1" parent="1" source="L9FCk5Rw57k0fqnOI3Nh-180" target="L9FCk5Rw57k0fqnOI3Nh-181">
          <mxGeometry relative="1" as="geometry" />
        </mxCell>
        <mxCell id="L9FCk5Rw57k0fqnOI3Nh-180" value="" style="rounded=0;whiteSpace=wrap;html=1;fillColor=#b0e3e6;strokeColor=#0e8088;" vertex="1" parent="1">
          <mxGeometry x="785" y="364" width="30" height="20" as="geometry" />
        </mxCell>
        <mxCell id="L9FCk5Rw57k0fqnOI3Nh-181" value="" style="rounded=0;whiteSpace=wrap;html=1;fillColor=#b0e3e6;strokeColor=#0e8088;" vertex="1" parent="1">
          <mxGeometry x="785" y="400" width="30" height="20" as="geometry" />
        </mxCell>
        <mxCell id="L9FCk5Rw57k0fqnOI3Nh-182" value="..." style="rounded=1;whiteSpace=wrap;html=1;fillColor=#f8cecc;strokeColor=#b85450;" vertex="1" parent="1">
          <mxGeometry x="844" y="280" width="40" height="30" as="geometry" />
        </mxCell>
        <mxCell id="L9FCk5Rw57k0fqnOI3Nh-183" value="N" style="rounded=1;whiteSpace=wrap;html=1;verticalAlign=bottom;absoluteArcSize=1;align=left;fillColor=#d5e8d4;strokeColor=#82b366;" vertex="1" parent="1">
          <mxGeometry x="360" y="440" width="155" height="125" as="geometry" />
        </mxCell>
        <mxCell id="L9FCk5Rw57k0fqnOI3Nh-184" value="..." style="rounded=1;whiteSpace=wrap;html=1;verticalAlign=bottom;absoluteArcSize=1;align=left;fillColor=#d5e8d4;strokeColor=#82b366;" vertex="1" parent="1">
          <mxGeometry x="370" y="450" width="155" height="125" as="geometry" />
        </mxCell>
        <mxCell id="L9FCk5Rw57k0fqnOI3Nh-185" value="1" style="rounded=1;whiteSpace=wrap;html=1;verticalAlign=bottom;absoluteArcSize=1;align=left;fillColor=#d5e8d4;strokeColor=#82b366;" vertex="1" parent="1">
          <mxGeometry x="382.5" y="460" width="155" height="125" as="geometry" />
        </mxCell>
        <mxCell id="L9FCk5Rw57k0fqnOI3Nh-186" value="kmem_cache_node" style="rounded=1;whiteSpace=wrap;html=1;verticalAlign=top;absoluteArcSize=1;fillColor=#d5e8d4;strokeColor=#82b366;" vertex="1" parent="1">
          <mxGeometry x="395" y="470" width="155" height="125" as="geometry" />
        </mxCell>
        <mxCell id="L9FCk5Rw57k0fqnOI3Nh-187" value="spinlock_t list_lock;" style="rounded=0;whiteSpace=wrap;html=1;" vertex="1" parent="1">
          <mxGeometry x="405" y="505" width="135" height="25" as="geometry" />
        </mxCell>
        <mxCell id="L9FCk5Rw57k0fqnOI3Nh-188" style="edgeStyle=orthogonalEdgeStyle;rounded=0;orthogonalLoop=1;jettySize=auto;html=1;exitX=1;exitY=0.5;exitDx=0;exitDy=0;entryX=0;entryY=0.5;entryDx=0;entryDy=0;" edge="1" parent="1" source="L9FCk5Rw57k0fqnOI3Nh-189" target="L9FCk5Rw57k0fqnOI3Nh-194">
          <mxGeometry relative="1" as="geometry" />
        </mxCell>
        <mxCell id="L9FCk5Rw57k0fqnOI3Nh-189" value="struct list_head partial;" style="rounded=0;whiteSpace=wrap;html=1;" vertex="1" parent="1">
          <mxGeometry x="405" y="555" width="135" height="25" as="geometry" />
        </mxCell>
        <mxCell id="L9FCk5Rw57k0fqnOI3Nh-190" value="unsigned long nr_partial;" style="rounded=0;whiteSpace=wrap;html=1;" vertex="1" parent="1">
          <mxGeometry x="405" y="530" width="135" height="25" as="geometry" />
        </mxCell>
        <mxCell id="L9FCk5Rw57k0fqnOI3Nh-191" style="edgeStyle=orthogonalEdgeStyle;rounded=1;orthogonalLoop=1;jettySize=auto;html=1;exitX=0.5;exitY=1;exitDx=0;exitDy=0;entryX=0;entryY=0.5;entryDx=0;entryDy=0;curved=0;" edge="1" parent="1" source="L9FCk5Rw57k0fqnOI3Nh-135" target="L9FCk5Rw57k0fqnOI3Nh-186">
          <mxGeometry relative="1" as="geometry">
            <mxPoint x="295" y="375" as="sourcePoint" />
            <mxPoint x="470" y="533" as="targetPoint" />
          </mxGeometry>
        </mxCell>
        <mxCell id="L9FCk5Rw57k0fqnOI3Nh-192" style="edgeStyle=orthogonalEdgeStyle;rounded=0;orthogonalLoop=1;jettySize=auto;html=1;exitX=0.5;exitY=1;exitDx=0;exitDy=0;entryX=0.5;entryY=0;entryDx=0;entryDy=0;endArrow=none;endFill=0;" edge="1" parent="1" source="L9FCk5Rw57k0fqnOI3Nh-194" target="L9FCk5Rw57k0fqnOI3Nh-196">
          <mxGeometry relative="1" as="geometry" />
        </mxCell>
        <mxCell id="L9FCk5Rw57k0fqnOI3Nh-193" style="edgeStyle=orthogonalEdgeStyle;rounded=0;orthogonalLoop=1;jettySize=auto;html=1;exitX=1;exitY=0.5;exitDx=0;exitDy=0;entryX=0;entryY=0.5;entryDx=0;entryDy=0;" edge="1" parent="1" source="L9FCk5Rw57k0fqnOI3Nh-194" target="L9FCk5Rw57k0fqnOI3Nh-201">
          <mxGeometry relative="1" as="geometry" />
        </mxCell>
        <mxCell id="L9FCk5Rw57k0fqnOI3Nh-194" value="slab" style="rounded=1;whiteSpace=wrap;html=1;fillColor=#f8cecc;strokeColor=#b85450;" vertex="1" parent="1">
          <mxGeometry x="600" y="552" width="40" height="30" as="geometry" />
        </mxCell>
        <mxCell id="L9FCk5Rw57k0fqnOI3Nh-195" style="edgeStyle=orthogonalEdgeStyle;rounded=0;orthogonalLoop=1;jettySize=auto;html=1;exitX=0.5;exitY=1;exitDx=0;exitDy=0;entryX=0.5;entryY=0;entryDx=0;entryDy=0;endArrow=none;endFill=0;fontSize=12;fillColor=#b0e3e6;strokeColor=#0e8088;" edge="1" parent="1" source="L9FCk5Rw57k0fqnOI3Nh-196" target="L9FCk5Rw57k0fqnOI3Nh-198">
          <mxGeometry relative="1" as="geometry" />
        </mxCell>
        <mxCell id="L9FCk5Rw57k0fqnOI3Nh-196" value="" style="rounded=0;whiteSpace=wrap;html=1;fillColor=#b0e3e6;strokeColor=#0e8088;" vertex="1" parent="1">
          <mxGeometry x="605" y="599.5" width="30" height="20" as="geometry" />
        </mxCell>
        <mxCell id="L9FCk5Rw57k0fqnOI3Nh-197" style="edgeStyle=orthogonalEdgeStyle;rounded=0;orthogonalLoop=1;jettySize=auto;html=1;exitX=0.5;exitY=1;exitDx=0;exitDy=0;entryX=0.5;entryY=0;entryDx=0;entryDy=0;endArrow=none;endFill=0;fontSize=12;fillColor=#b0e3e6;strokeColor=#0e8088;" edge="1" parent="1" source="L9FCk5Rw57k0fqnOI3Nh-198" target="L9FCk5Rw57k0fqnOI3Nh-199">
          <mxGeometry relative="1" as="geometry" />
        </mxCell>
        <mxCell id="L9FCk5Rw57k0fqnOI3Nh-198" value="" style="rounded=0;whiteSpace=wrap;html=1;fillColor=#b0e3e6;strokeColor=#0e8088;" vertex="1" parent="1">
          <mxGeometry x="605" y="636" width="30" height="20" as="geometry" />
        </mxCell>
        <mxCell id="L9FCk5Rw57k0fqnOI3Nh-199" value="" style="rounded=0;whiteSpace=wrap;html=1;fillColor=#b0e3e6;strokeColor=#0e8088;" vertex="1" parent="1">
          <mxGeometry x="605" y="672" width="30" height="20" as="geometry" />
        </mxCell>
        <mxCell id="L9FCk5Rw57k0fqnOI3Nh-200" style="edgeStyle=orthogonalEdgeStyle;rounded=0;orthogonalLoop=1;jettySize=auto;html=1;exitX=1;exitY=0.5;exitDx=0;exitDy=0;entryX=0;entryY=0.5;entryDx=0;entryDy=0;" edge="1" parent="1" source="L9FCk5Rw57k0fqnOI3Nh-201" target="L9FCk5Rw57k0fqnOI3Nh-203">
          <mxGeometry relative="1" as="geometry" />
        </mxCell>
        <mxCell id="L9FCk5Rw57k0fqnOI3Nh-201" value="slab" style="rounded=1;whiteSpace=wrap;html=1;fillColor=#f8cecc;strokeColor=#b85450;" vertex="1" parent="1">
          <mxGeometry x="670" y="552" width="40" height="30" as="geometry" />
        </mxCell>
        <mxCell id="L9FCk5Rw57k0fqnOI3Nh-202" style="edgeStyle=orthogonalEdgeStyle;rounded=0;orthogonalLoop=1;jettySize=auto;html=1;exitX=1;exitY=0.5;exitDx=0;exitDy=0;entryX=0;entryY=0.5;entryDx=0;entryDy=0;" edge="1" parent="1" source="L9FCk5Rw57k0fqnOI3Nh-203" target="L9FCk5Rw57k0fqnOI3Nh-216">
          <mxGeometry relative="1" as="geometry" />
        </mxCell>
        <mxCell id="L9FCk5Rw57k0fqnOI3Nh-203" value="slab" style="rounded=1;whiteSpace=wrap;html=1;fillColor=#f8cecc;strokeColor=#b85450;" vertex="1" parent="1">
          <mxGeometry x="740" y="552" width="40" height="30" as="geometry" />
        </mxCell>
        <mxCell id="L9FCk5Rw57k0fqnOI3Nh-204" style="edgeStyle=orthogonalEdgeStyle;rounded=0;orthogonalLoop=1;jettySize=auto;html=1;exitX=0.5;exitY=1;exitDx=0;exitDy=0;entryX=0.5;entryY=0;entryDx=0;entryDy=0;endArrow=none;endFill=0;" edge="1" parent="1" target="L9FCk5Rw57k0fqnOI3Nh-206">
          <mxGeometry relative="1" as="geometry">
            <mxPoint x="690" y="582" as="sourcePoint" />
          </mxGeometry>
        </mxCell>
        <mxCell id="L9FCk5Rw57k0fqnOI3Nh-205" style="edgeStyle=orthogonalEdgeStyle;rounded=0;orthogonalLoop=1;jettySize=auto;html=1;exitX=0.5;exitY=1;exitDx=0;exitDy=0;entryX=0.5;entryY=0;entryDx=0;entryDy=0;endArrow=none;endFill=0;fontSize=12;fillColor=#b0e3e6;strokeColor=#0e8088;" edge="1" parent="1" source="L9FCk5Rw57k0fqnOI3Nh-206" target="L9FCk5Rw57k0fqnOI3Nh-208">
          <mxGeometry relative="1" as="geometry" />
        </mxCell>
        <mxCell id="L9FCk5Rw57k0fqnOI3Nh-206" value="" style="rounded=0;whiteSpace=wrap;html=1;fillColor=#b0e3e6;strokeColor=#0e8088;" vertex="1" parent="1">
          <mxGeometry x="675" y="599.5" width="30" height="20" as="geometry" />
        </mxCell>
        <mxCell id="L9FCk5Rw57k0fqnOI3Nh-207" style="edgeStyle=orthogonalEdgeStyle;rounded=0;orthogonalLoop=1;jettySize=auto;html=1;exitX=0.5;exitY=1;exitDx=0;exitDy=0;entryX=0.5;entryY=0;entryDx=0;entryDy=0;endArrow=none;endFill=0;fontSize=12;fillColor=#b0e3e6;strokeColor=#0e8088;" edge="1" parent="1" source="L9FCk5Rw57k0fqnOI3Nh-208" target="L9FCk5Rw57k0fqnOI3Nh-209">
          <mxGeometry relative="1" as="geometry" />
        </mxCell>
        <mxCell id="L9FCk5Rw57k0fqnOI3Nh-208" value="" style="rounded=0;whiteSpace=wrap;html=1;fillColor=#b0e3e6;strokeColor=#0e8088;" vertex="1" parent="1">
          <mxGeometry x="675" y="636" width="30" height="20" as="geometry" />
        </mxCell>
        <mxCell id="L9FCk5Rw57k0fqnOI3Nh-209" value="" style="rounded=0;whiteSpace=wrap;html=1;fillColor=#b0e3e6;strokeColor=#0e8088;" vertex="1" parent="1">
          <mxGeometry x="675" y="672" width="30" height="20" as="geometry" />
        </mxCell>
        <mxCell id="L9FCk5Rw57k0fqnOI3Nh-210" style="edgeStyle=orthogonalEdgeStyle;rounded=0;orthogonalLoop=1;jettySize=auto;html=1;exitX=0.5;exitY=1;exitDx=0;exitDy=0;entryX=0.5;entryY=0;entryDx=0;entryDy=0;endArrow=none;endFill=0;" edge="1" parent="1" target="L9FCk5Rw57k0fqnOI3Nh-212">
          <mxGeometry relative="1" as="geometry">
            <mxPoint x="760" y="582" as="sourcePoint" />
          </mxGeometry>
        </mxCell>
        <mxCell id="L9FCk5Rw57k0fqnOI3Nh-211" style="edgeStyle=orthogonalEdgeStyle;rounded=0;orthogonalLoop=1;jettySize=auto;html=1;exitX=0.5;exitY=1;exitDx=0;exitDy=0;entryX=0.5;entryY=0;entryDx=0;entryDy=0;endArrow=none;endFill=0;fontSize=12;fillColor=#b0e3e6;strokeColor=#0e8088;" edge="1" parent="1" source="L9FCk5Rw57k0fqnOI3Nh-212" target="L9FCk5Rw57k0fqnOI3Nh-214">
          <mxGeometry relative="1" as="geometry" />
        </mxCell>
        <mxCell id="L9FCk5Rw57k0fqnOI3Nh-212" value="" style="rounded=0;whiteSpace=wrap;html=1;fillColor=#b0e3e6;strokeColor=#0e8088;" vertex="1" parent="1">
          <mxGeometry x="745" y="599.5" width="30" height="20" as="geometry" />
        </mxCell>
        <mxCell id="L9FCk5Rw57k0fqnOI3Nh-213" style="edgeStyle=orthogonalEdgeStyle;rounded=0;orthogonalLoop=1;jettySize=auto;html=1;exitX=0.5;exitY=1;exitDx=0;exitDy=0;entryX=0.5;entryY=0;entryDx=0;entryDy=0;endArrow=none;endFill=0;fontSize=12;fillColor=#b0e3e6;strokeColor=#0e8088;" edge="1" parent="1" source="L9FCk5Rw57k0fqnOI3Nh-214" target="L9FCk5Rw57k0fqnOI3Nh-215">
          <mxGeometry relative="1" as="geometry" />
        </mxCell>
        <mxCell id="L9FCk5Rw57k0fqnOI3Nh-214" value="" style="rounded=0;whiteSpace=wrap;html=1;fillColor=#b0e3e6;strokeColor=#0e8088;" vertex="1" parent="1">
          <mxGeometry x="745" y="636" width="30" height="20" as="geometry" />
        </mxCell>
        <mxCell id="L9FCk5Rw57k0fqnOI3Nh-215" value="" style="rounded=0;whiteSpace=wrap;html=1;fillColor=#b0e3e6;strokeColor=#0e8088;" vertex="1" parent="1">
          <mxGeometry x="745" y="672" width="30" height="20" as="geometry" />
        </mxCell>
        <mxCell id="L9FCk5Rw57k0fqnOI3Nh-216" value="..." style="rounded=1;whiteSpace=wrap;html=1;fillColor=#f8cecc;strokeColor=#b85450;" vertex="1" parent="1">
          <mxGeometry x="804" y="552" width="40" height="30" as="geometry" />
        </mxCell>
      </root>
    </mxGraphModel>
  </diagram>
</mxfile>
